PathFileType	4	(X/Y/Z)	output.trc
DataRate	CameraRate	NumFrames	NumMarkers	Units	OrigDataRate	OrigDataStartFrame	OrigNumFrames
100	100	12	23	m	100	470	3753
Frame#	Time	C7			T8			EL			EM			US			RS			AA			Fore_Clus_1			Fore_Clus_2			Fore_Clus_3			Fore_Clus_4			Hum_Clus_1			Hum_Clus_2			Hum_Clus_3			Hum_Clus_4			Thor_Clus_1			Thor_Clus_2			Thor_Clus_3			Thor_Clus_4			IJ			PX			GH			Thor_Clus_5		
		X1	Y1	Z1	X2	Y2	Z2	X3	Y3	Z3	X4	Y4	Z4	X5	Y5	Z5	X6	Y6	Z6	X7	Y7	Z7	X8	Y8	Z8	X9	Y9	Z9	X10	Y10	Z10	X11	Y11	Z11	X12	Y12	Z12	X13	Y13	Z13	X14	Y14	Z14	X15	Y15	Z15	X16	Y16	Z16	X17	Y17	Z17	X18	Y18	Z18	X19	Y19	Z19	X20	Y20	Z20	X21	Y21	Z21	X22	Y22	Z22	X23	Y23	Z23
469	4.690000	-0.033206	1.571038	-0.035245	-0.047677	1.332619	-0.099512	-0.259986	1.171575	0.093060	-0.204299	1.160069	0.041071	-0.228154	0.899581	0.154657	-0.165131	0.908646	0.170072	-0.205733	1.493382	0.058938	-0.238840	0.954914	0.180335	-0.231711	0.902360	0.193459	-0.205985	0.908002	0.203647	-0.197884	0.964860	0.196972	-0.241074	1.280764	0.149388	-0.273922	1.290391	0.099806	-0.278902	1.353696	0.102391	-0.240671	1.354987	0.147016	0.093493	1.452424	0.115137	0.046557	1.401105	0.163020	0.054030	1.451472	0.135857	0.103746	1.402221	0.132910	0.032575	1.486286	0.077875	0.056046	1.300519	0.115431	-0.170075	1.472088	0.075944	0.042083	1.423491	0.154788
470	4.700000	-0.033259	1.571021	-0.035333	-0.047679	1.332573	-0.099504	-0.259975	1.171575	0.093115	-0.204276	1.160057	0.041142	-0.228098	0.899622	0.154830	-0.165073	0.908691	0.170235	-0.205777	1.493368	0.058871	-0.238749	0.954936	0.180472	-0.231650	0.902399	0.193591	-0.205918	0.908057	0.203806	-0.197837	0.964918	0.197126	-0.241094	1.280801	0.149404	-0.273934	1.290396	0.099810	-0.278931	1.353692	0.102359	-0.240715	1.355021	0.146996	0.093412	1.452490	0.115277	0.046526	1.401181	0.162997	0.054024	1.451564	0.135843	0.103695	1.402300	0.132908	0.032532	1.486327	0.077825	0.056037	1.300580	0.115458	-0.170125	1.472099	0.075882	0.042062	1.423579	0.154759
471	4.710000	-0.033312	1.571005	-0.035426	-0.047677	1.332529	-0.099505	-0.259966	1.171576	0.093176	-0.204257	1.160046	0.041215	-0.228034	0.899662	0.155007	-0.165009	0.908737	0.170412	-0.205820	1.493353	0.058796	-0.238711	0.954972	0.180609	-0.231584	0.902434	0.193745	-0.205873	0.908108	0.204016	-0.197789	0.964970	0.197284	-0.241111	1.280813	0.149412	-0.273945	1.290386	0.099812	-0.278958	1.353681	0.102340	-0.240747	1.355036	0.146975	0.093381	1.452562	0.115232	0.046493	1.401259	0.162977	0.053954	1.451615	0.135785	0.103681	1.402383	0.132858	0.032489	1.486370	0.077770	0.056031	1.300643	0.115477	-0.170170	1.472109	0.075820	0.042029	1.423643	0.154733
472	4.720000	-0.033368	1.570988	-0.035524	-0.047672	1.332485	-0.099513	-0.259955	1.171578	0.093241	-0.204242	1.160035	0.041287	-0.227965	0.899698	0.155191	-0.164943	0.908777	0.170603	-0.205864	1.493331	0.058715	-0.238481	0.954904	0.180709	-0.231489	0.902492	0.193889	-0.205802	0.908166	0.204184	-0.197743	0.965047	0.197455	-0.241120	1.280849	0.149425	-0.273951	1.290385	0.099821	-0.278980	1.353691	0.102328	-0.240762	1.355073	0.146959	0.093342	1.452633	0.115194	0.046474	1.401338	0.162948	0.053950	1.451722	0.135754	0.103653	1.402463	0.132829	0.032445	1.486412	0.077709	0.056028	1.300704	0.115488	-0.170213	1.472120	0.075758	0.042006	1.423731	0.154698
473	4.730000	-0.033425	1.570972	-0.035627	-0.047665	1.332442	-0.099530	-0.259944	1.171580	0.093309	-0.204231	1.160024	0.041359	-0.227890	0.899730	0.155378	-0.164873	0.908816	0.170806	-0.205909	1.493307	0.058628	-0.238028	0.954635	0.180768	-0.231411	0.902523	0.194040	-0.205756	0.908200	0.204382	-0.197582	0.964929	0.197517	-0.241118	1.280861	0.149445	-0.273959	1.290381	0.099846	-0.278991	1.353685	0.102322	-0.240783	1.355089	0.146951	0.093316	1.452691	0.115128	0.046437	1.401411	0.162904	0.053874	1.451779	0.135684	0.103617	1.402541	0.132791	0.032400	1.486453	0.077642	0.056027	1.300765	0.115491	-0.170252	1.472129	0.075696	0.041976	1.423788	0.154666
474	4.740000	-0.033482	1.570956	-0.035734	-0.047660	1.332399	-0.099552	-0.259933	1.171583	0.093381	-0.204223	1.160014	0.041430	-0.227810	0.899759	0.155570	-0.164800	0.908853	0.171022	-0.205954	1.493283	0.058537	-0.238019	0.954729	0.180965	-0.231331	0.902583	0.194219	-0.205716	0.908283	0.204560	-0.197451	0.964916	0.197636	-0.241114	1.280881	0.149474	-0.273963	1.290373	0.099873	-0.279006	1.353683	0.102328	-0.240793	1.355114	0.146952	0.093286	1.452759	0.115060	0.046421	1.401491	0.162870	0.053846	1.451872	0.135617	0.103602	1.402629	0.132768	0.032356	1.486494	0.077569	0.056025	1.300826	0.115487	-0.170288	1.472138	0.075634	0.041963	1.423862	0.154626
475	4.750000	-0.033541	1.570938	-0.035847	-0.047655	1.332354	-0.099580	-0.259921	1.171585	0.093454	-0.204217	1.160003	0.041500	-0.227727	0.899782	0.155766	-0.164725	0.908885	0.171248	-0.206000	1.493255	0.058440	-0.237943	0.954737	0.181132	-0.231262	0.902609	0.194394	-0.205661	0.908346	0.204733	-0.197321	0.964617	0.197625	-0.241096	1.280895	0.149502	-0.273963	1.290369	0.099905	-0.279025	1.353677	0.102340	-0.240796	1.355126	0.146950	0.093256	1.452820	0.114991	0.046392	1.401557	0.162815	0.053815	1.451938	0.135558	0.103563	1.402689	0.132723	0.032310	1.486533	0.077491	0.056024	1.300885	0.115477	-0.170323	1.472147	0.075570	0.041941	1.423920	0.154576
476	4.760000	-0.033599	1.570921	-0.035964	-0.047653	1.332311	-0.099612	-0.259910	1.171588	0.093528	-0.204213	1.159991	0.041569	-0.227639	0.899803	0.155965	-0.164648	0.908920	0.171481	-0.206045	1.493232	0.058340	-0.237876	0.954801	0.181301	-0.231182	0.902658	0.194622	-0.205589	0.908426	0.204942	-0.197383	0.965053	0.198219	-0.241092	1.280931	0.149530	-0.273955	1.290381	0.099936	-0.279023	1.353684	0.102340	-0.240784	1.355151	0.146955	0.093231	1.452882	0.114929	0.046370	1.401646	0.162767	0.053623	1.452067	0.135369	0.103518	1.402756	0.132684	0.032265	1.486572	0.077408	0.056019	1.300942	0.115463	-0.170354	1.472154	0.075504	0.041928	1.423995	0.154516
477	4.770000	-0.033658	1.570900	-0.036087	-0.047654	1.332263	-0.099647	-0.259899	1.171590	0.093601	-0.204211	1.159979	0.041636	-0.227552	0.899820	0.156169	-0.164572	0.908951	0.171721	-0.206093	1.493207	0.058235	-0.237830	0.954824	0.181470	-0.231148	0.902730	0.194958	-0.205526	0.908464	0.205130	-0.197310	0.965062	0.198365	-0.241077	1.280942	0.149552	-0.273963	1.290370	0.099978	-0.279034	1.353675	0.102350	-0.240791	1.355161	0.146955	0.093192	1.452953	0.114863	0.046336	1.401701	0.162717	0.053600	1.452098	0.135320	0.103485	1.402817	0.132630	0.032218	1.486608	0.077321	0.056012	1.300999	0.115446	-0.170386	1.472160	0.075436	0.041897	1.424037	0.154461
478	4.780000	-0.033715	1.570878	-0.036215	-0.047658	1.332213	-0.099685	-0.259889	1.171591	0.093672	-0.204210	1.159966	0.041701	-0.227463	0.899836	0.156373	-0.164494	0.908985	0.171963	-0.206140	1.493185	0.058126	-0.237759	0.954881	0.181654	-0.231070	0.902774	0.195175	-0.205443	0.908537	0.205286	-0.197251	0.965150	0.198545	-0.241066	1.280978	0.149575	-0.273969	1.290375	0.100006	-0.279049	1.353682	0.102355	-0.240786	1.355198	0.146953	0.093164	1.453024	0.114801	0.046322	1.401780	0.162654	0.053616	1.452119	0.135027	0.103451	1.402875	0.132590	0.032171	1.486643	0.077229	0.056001	1.301053	0.115427	-0.170416	1.472164	0.075364	0.041873	1.424100	0.154397
479	4.790000	-0.033771	1.570852	-0.036349	-0.047665	1.332160	-0.099723	-0.259882	1.171592	0.093740	-0.204211	1.159951	0.041763	-0.227374	0.899851	0.156579	-0.164418	0.909023	0.172204	-0.206187	1.493166	0.058013	-0.237723	0.954920	0.181842	-0.231017	0.902840	0.195402	-0.205386	0.908589	0.205479	-0.197205	0.965205	0.198707	-0.241045	1.281002	0.149596	-0.273977	1.290375	0.100035	-0.279062	1.353677	0.102358	-0.240795	1.355222	0.146940	0.093118	1.453071	0.114723	0.046280	1.401837	0.162596	0.053630	1.452098	0.134716	0.103416	1.402927	0.132528	0.032123	1.486676	0.077134	0.055985	1.301105	0.115408	-0.170446	1.472168	0.075286	0.041815	1.424142	0.154320
480	4.800000	-0.033827	1.570821	-0.036489	-0.047675	1.332099	-0.099761	-0.259877	1.171593	0.093802	-0.204212	1.159935	0.041823	-0.227288	0.899866	0.156785	-0.164344	0.909062	0.172443	-0.206236	1.493145	0.057894	-0.237664	0.954986	0.182033	-0.230958	0.902907	0.195606	-0.205431	0.908775	0.205782	-0.197165	0.965275	0.198856	-0.241043	1.281040	0.149607	-0.273980	1.290383	0.100054	-0.279068	1.353694	0.102330	-0.240798	1.355266	0.146912	0.093063	1.453108	0.114643	0.046240	1.401916	0.162522	0.053458	1.452313	0.135046	0.103370	1.402999	0.132470	0.032074	1.486705	0.077035	0.055966	1.301155	0.115390	-0.170478	1.472170	0.075203	0.041789	1.424226	0.154268
